<?xml version="1.0" standalone="no"?>
<!DOCTYPE svg PUBLIC "-//W3C//DTD SVG 20010904//EN"
 "http://www.w3.org/TR/2001/REC-SVG-20010904/DTD/svg10.dtd">
<svg version="1.0" xmlns="http://www.w3.org/2000/svg"
 width="512.000000pt" height="512.000000pt" viewBox="0 0 512.000000 512.000000"
 preserveAspectRatio="xMidYMid meet">
<metadata>
Created by potrace 1.14, written by Peter Selinger 2001-2017
</metadata>
<g transform="translate(0.000000,512.000000) scale(0.100000,-0.100000)"
fill="#000000" stroke="none">
<path d="M2470 4310 c-19 -5 -287 -105 -595 -223 -308 -118 -832 -319 -1165
-447 -333 -127 -620 -239 -639 -248 -39 -18 -71 -65 -71 -105 0 -42 29 -96 60
-112 49 -25 2343 -907 2400 -922 122 -33 115 -35 1019 311 453 174 828 316
833 316 4 0 8 -258 8 -573 l0 -573 -48 -50 c-97 -100 -97 -227 0 -328 l47 -49
11 -121 c28 -326 106 -564 217 -667 44 -40 47 -41 98 -36 135 14 378 159 447
266 54 85 34 115 -109 169 -121 46 -184 85 -250 155 -60 63 -100 129 -123 205
l-18 57 33 37 c80 94 73 219 -17 312 l-48 50 0 622 0 622 38 15 c20 8 123 47
227 87 244 93 254 98 276 134 41 68 13 146 -65 182 -28 12 -575 224 -1215 469
-1110 426 -1168 447 -1240 451 -42 2 -92 -1 -111 -6z"/>
<path d="M1122 2254 c4 -374 0 -360 123 -479 167 -163 529 -328 952 -434 294
-73 399 -76 673 -15 436 98 856 287 1021 461 106 111 104 100 107 467 3 303 2
318 -15 314 -10 -3 -297 -112 -638 -243 -680 -260 -720 -273 -854 -256 -94 12
-66 2 -761 271 -316 122 -583 225 -593 228 -17 4 -18 -11 -15 -314z"/>
</g>
</svg>
